# xmcd CD database file
#
# Track frame offsets:
#	150
#	24725
#	47457
#	80037
#	105462
#	130777
#	154215
#	165705
#	196800
#	212432
#	234450
#
# Disc length: 3465 seconds
#
# Revision: 3
# Processed by: cddbd v1.5.1PL2 Copyright (c) Steve Scherf et al.
# Submitted via: jetAudio 5
#
DISCID=860d870b
DTITLE=정태춘 - 정태춘 5 아 대한민국
DYEAR=1990
DGENRE=
TTITLE0=아, 대한민국
TTITLE1=떠나는 자들의 서울
TTITLE2=우리들의 죽음
TTITLE3=일어나라, 열사여
TTITLE4=황토강으로
TTITLE5=한여름 밤
TTITLE6=인사동
TTITLE7=버섯구름의 노래
TTITLE8=형제에게
TTITLE9=그대, 행복한가
TTITLE10=우리들 세상
EXTD=
EXTT0=
EXTT1=
EXTT2=
EXTT3=
EXTT4=
EXTT5=
EXTT6=
EXTT7=
EXTT8=
EXTT9=
EXTT10=
PLAYORDER=
